<!DOCTYPE svg PUBLIC "-//W3C//DTD SVG 20010904//EN" "http://www.w3.org/TR/2001/REC-SVG-20010904/DTD/svg10.dtd">
          <svg version="1.0" xmlns="http://www.w3.org/2000/svg" width="1024px" height="1024px" viewBox="0 0 10240 10240" preserveAspectRatio="xMidYMid meet">
            <g fill="#2a6533" transform="scale(0.15)">
              <path d="M4363 4452 c-129 -33 -248 -105 -354 -213 -89 -91 -150 -191 -214 -354 -15 -38 -45 -110 -67 -160 -43 -99 -50 -115 -136 -320 -54 -127 -174 -411 -222 -525 -10 -25 -35 -83 -55 -130 -20 -47 -45 -105 -55 -130 -24 -58 -76 -180 -106 -250 -13 -30 -37 -89 -54 -130 -17 -41 -37 -88 -45 -105 -11 -26 -49 -115 -206 -490 -17 -38 -38 -90 -49 -115 -10 -25 -32 -78 -49 -117 -17 -40 -45 -106 -62 -145 -17 -40 -39 -93 -49 -118 -10 -25 -34 -81 -53 -125 -38 -90 -79 -188 -107 -255 -10 -25 -32 -79 -50 -120 -17 -41 -40 -95 -50 -120 -52 -123 -61 -143 -64 -139 -3 4 -203 471 -406 949 -50 118 -97 229 -104 245 -8 17 -26 59 -41 95 -15 36 -42 101 -61 145 -20 44 -44 100 -54 125 -67 157 -183 431 -196 460 -9 19 -43 98 -75 175 -33 77 -70 165 -84 195 -59 134 -135 311 -135 315 0 2 -12 30 -26 62 -58 129 -199 459 -226 528 -21 53 -119 253 -158 320 -51 91 -97 153 -155 210 -47 47 -74 65 -126 83 -81 28 -191 52 -241 52 l-38 0 0 -1995 0 -1995 1063 0 1064 0 12 -27 c7 -16 22 -52 33 -81 14 -39 24 -52 35 -48 8 3 34 6 59 6 41 0 45 2 60 37 14 34 75 179 139 333 12 30 82 197 155 370 73 173 142 340 155 370 12 30 93 224 180 430 86 206 231 553 322 770 91 217 197 470 235 563 39 92 74 167 78 167 4 0 11 -17 15 -37 9 -49 59 -175 97 -243 149 -271 347 -442 573 -496 211 -50 431 -15 570 92 l47 35 -5 -358 c-5 -392 -8 -416 -62 -470 -38 -38 -84 -43 -160 -17 -57 19 -66 16 -80 -26 -12 -34 -11 -35 29 -53 36 -16 299 -124 470 -193 34 -14 80 -24 107 -24 l48 0 3 1283 c4 1393 2 1353 58 1412 37 40 80 42 211 10 22 -6 26 -3 37 31 6 21 10 39 9 41 -2 1 -86 36 -187 78 -102 42 -227 94 -278 116 -70 29 -106 39 -147 39 l-55 0 0 -125 c0 -69 -4 -125 -8 -125 -4 0 -24 16 -43 36 -73 77 -214 162 -313 190 -85 24 -268 27 -353 6z m528 -260 c37 -18 94 -58 128 -89 l62 -55 -3 -527 c-3 -510 -4 -528 -25 -588 -54 -152 -125 -242 -238 -298 -170 -84 -341 -46 -476 103 -136 152 -198 353 -198 637 0 225 37 402 116 545 49 89 189 227 268 265 89 42 102 44 205 42 85 -2 102 -6 161 -35z"/>
              <path d="M6219 4441 c-132 -28 -260 -147 -311 -289 -32 -89 -36 -241 -9 -330 71 -236 287 -386 894 -620 l148 -57 -7 -105 c-13 -219 -49 -322 -133 -386 -119 -92 -329 -85 -423 13 -59 62 -68 90 -68 205 0 57 -5 120 -10 140 -50 180 -302 165 -340 -19 -42 -198 115 -405 373 -494 172 -59 459 -60 632 -2 137 46 204 97 261 199 48 87 52 135 58 794 4 475 8 573 21 617 33 112 112 97 250 -46 21 -22 43 -41 47 -41 4 0 8 28 8 61 0 59 -2 64 -47 118 -132 157 -246 235 -364 247 -87 9 -140 -7 -189 -57 -44 -44 -58 -83 -67 -176 -3 -35 -7 -63 -9 -63 -2 0 -52 36 -110 80 -240 182 -301 210 -464 216 -58 2 -121 0 -141 -5z m404 -256 c72 -22 156 -71 290 -169 l27 -20 0 -353 c0 -217 -4 -353 -10 -353 -9 0 -102 39 -280 117 -277 123 -410 270 -412 454 -1 102 32 185 100 254 80 81 174 104 285 70z"/>
              <path d="M1366 4334 c-110 -17 -195 -55 -242 -106 -45 -50 -54 -75 -54 -152 0 -91 37 -208 140 -446 23 -52 48 -111 55 -130 8 -19 52 -123 98 -230 l85 -195 812 0 812 0 45 105 c24 58 51 121 58 140 8 19 27 67 43 105 17 39 49 115 71 170 179 430 194 560 75 665 -47 41 -87 58 -181 76 -107 20 -1684 19 -1817 -2z"/>
              <path d="M8535 4046 c-17 -12 -18 -29 -11 -346 l7 -333 -319 6 c-265 6 -322 4 -338 -7 -17 -13 -19 -27 -19 -130 0 -81 4 -119 13 -128 10 -10 78 -12 320 -10 169 2 315 6 325 9 17 5 18 -9 11 -316 -6 -253 -4 -323 6 -336 18 -22 242 -22 260 0 9 11 10 88 5 334 l-8 319 79 -4 c198 -10 581 -12 597 -3 25 14 25 239 1 264 -15 14 -50 15 -346 9 l-329 -7 7 329 c7 304 6 331 -10 347 -14 14 -36 17 -125 17 -74 0 -113 -4 -126 -14z"/>
              <path d="M10646 4039 c-12 -18 -14 -65 -10 -303 3 -154 6 -301 8 -325 l4 -44 -323 6 c-286 6 -326 5 -339 -9 -13 -12 -16 -40 -16 -129 0 -105 2 -115 21 -129 18 -13 62 -14 288 -10 146 2 289 6 318 8 l51 4 -4 -51 c-2 -29 -6 -172 -8 -319 -4 -230 -3 -270 10 -283 20 -20 248 -22 261 -2 4 6 6 157 4 333 l-3 322 64 -4 c34 -2 182 -6 326 -8 324 -5 302 -15 302 139 0 159 30 147 -366 139 l-326 -7 3 330 c3 269 1 333 -10 346 -11 14 -34 17 -127 17 -104 0 -114 -2 -128 -21z"/>
              <path d="M1550 2841 c0 -7 162 -392 205 -486 7 -16 30 -68 50 -115 20 -47 47 -110 60 -140 14 -30 53 -122 88 -205 71 -166 250 -577 291 -669 16 -33 31 -55 36 -50 4 5 24 50 45 99 20 50 42 104 50 120 17 39 62 146 90 215 12 30 102 244 200 475 97 231 191 452 207 490 16 39 35 86 43 106 7 20 22 54 33 75 10 21 22 51 26 67 l6 27 -715 0 c-393 0 -715 -4 -715 -9z"/>
            </g>
          </svg>