<svg id="svg" xmlns="http://www.w3.org/2000/svg" xmlns:xlink="http://www.w3.org/1999/xlink" width="400" height="383.65679264555666" viewBox="0, 0, 400,383.65679264555666"><g id="svgg" fill="#2a6533"><path id="path0" d="M196.365 1.975 C 195.951 2.644,190.398 15.701,190.398 16.004 C 190.398 16.771,329.966 347.431,331.439 350.153 C 344.355 374.026,358.040 381.830,387.858 382.326 L 399.617 382.522 399.502 377.471 L 399.387 372.421 397.957 372.318 C 374.612 370.632,361.993 362.287,349.303 340.143 C 342.116 327.604,347.860 341.010,272.115 159.959 C 238.365 79.285,209.648 10.659,208.300 7.457 L 205.849 1.634 201.212 1.634 C 198.662 1.634,196.481 1.788,196.365 1.975 M0.000 193.871 L 0.000 372.217 1.987 372.217 C 7.817 372.217,23.535 367.956,29.590 364.735 C 38.561 359.962,49.926 342.687,61.896 315.628 C 65.379 307.756,189.640 17.077,189.880 16.241 C 190.075 15.562,185.365 15.526,95.043 15.526 L 0.000 15.526 0.000 193.871 M153.887 162.262 C 136.175 203.390,121.762 237.118,121.858 237.214 C 121.954 237.309,150.622 237.341,185.565 237.284 L 249.099 237.181 217.749 162.488 C 200.506 121.407,186.329 87.725,186.244 87.640 C 186.159 87.555,171.598 121.135,153.887 162.262 M99.606 288.968 C 85.074 322.852,83.750 326.075,81.601 332.789 C 73.356 358.557,81.618 368.165,114.966 371.592 C 123.732 372.493,250.358 372.513,259.448 371.615 C 291.955 368.404,297.163 355.848,281.873 317.548 C 279.621 311.906,262.053 269.857,257.727 259.755 L 256.896 257.814 184.932 257.814 L 112.968 257.814 99.606 288.968 " stroke="none" fill="#2a6533" fill-rule="evenodd"></path></g></svg>
