<!DOCTYPE svg PUBLIC "-//W3C//DTD SVG 20010904//EN" "http://www.w3.org/TR/2001/REC-SVG-20010904/DTD/svg10.dtd">
<svg version="1.0" xmlns="http://www.w3.org/2000/svg" width="1024px" height="1024px" viewBox="0 0 10240 10240" preserveAspectRatio="xMidYMid meet">
<g id="layer101" fill="#e6e6e6" stroke="none">
<path d="M9400 9773 c-235 -25 -479 -107 -643 -216 -150 -100 -319 -303 -454 -542 -32 -58 -3447 -8145 -3460 -8195 -2 -9 29 -93 69 -188 l72 -173 120 3 119 3 1597 3815 c878 2098 1618 3865 1644 3925 252 575 487 933 719 1093 175 121 398 196 658 224 l119 12 0 123 0 123 -262 -2 c-145 0 -279 -3 -298 -5z"/>
<path d="M180 5165 l0 -4365 2325 0 c1539 0 2325 3 2325 10 0 13 -3102 7270 -3185 7452 -205 446 -405 775 -583 960 -98 102 -189 154 -367 211 -143 46 -385 97 -458 97 l-57 0 0 -4365z"/>
<path d="M3005 9519 c-422 -46 -636 -112 -757 -236 -32 -32 -70 -75 -84 -96 -90 -133 -86 -317 13 -622 64 -198 106 -300 455 -1113 l311 -722 1765 2 1764 3 245 580 c310 737 394 945 455 1125 162 480 156 684 -26 866 -100 100 -249 161 -497 201 -95 16 -256 17 -1834 19 -952 1 -1766 -2 -1810 -7z"/>
<path d="M3367 5733 c117 -274 473 -1100 790 -1836 317 -736 579 -1334 583 -1330 6 6 1498 3554 1531 3641 l9 22 -1564 0 -1564 0 215 -497z"/>
<path d="M6642 2024 l-22 -15 6 -366 7 -365 -29 5 c-16 3 -177 7 -357 9 -283 3 -329 1 -337 -12 -5 -8 -10 -68 -10 -132 0 -94 3 -120 16 -133 14 -14 53 -15 367 -9 l350 7 -7 -351 -7 -350 23 -16 c30 -21 225 -23 253 -3 17 13 18 33 16 333 -1 175 -4 334 -8 353 l-6 34 364 -6 c220 -4 370 -3 379 3 20 13 22 252 2 272 -14 14 -66 15 -481 9 l-253 -4 3 319 c4 422 5 405 -17 421 -27 20 -222 18 -252 -3z"/>
<path d="M8936 2019 c-12 -18 -14 -72 -9 -377 l6 -355 -350 6 c-330 6 -351 5 -367 -12 -24 -26 -24 -242 1 -266 15 -15 48 -16 366 -9 l350 7 -6 -346 c-5 -281 -3 -348 8 -363 11 -16 30 -19 128 -22 171 -5 157 -40 150 384 l-6 347 360 -7 c323 -6 363 -5 377 10 13 12 16 39 16 134 0 112 -1 120 -22 135 -20 13 -64 14 -377 8 l-354 -6 7 358 c6 328 5 359 -10 376 -15 17 -32 19 -135 19 -109 0 -119 -2 -133 -21z"/>
</g>
</svg>
